<svg width="16" height="17" viewBox="0 0 16 17" fill="none" xmlns="http://www.w3.org/2000/svg">
<path d="M4.80956 9.34553L9.37497 6.53273C9.47722 6.47006 9.60812 6.47606 9.70386 6.55006C10.1376 6.88408 10.5251 7.22276 10.7837 7.50744C10.7837 7.50744 11.0064 7.73545 11.1028 7.88013C11.2584 8.07747 11.3333 8.33548 11.3333 8.58616C11.3333 8.86751 11.2513 9.13352 11.0878 9.3462C11.0507 9.3842 10.9094 9.55154 10.7759 9.68822C9.99693 10.5389 7.96366 11.9443 6.89428 12.3704C6.73862 12.439 6.32311 12.5824 6.10754 12.5904C5.89979 12.5904 5.6992 12.545 5.50642 12.4457C5.26936 12.309 5.08375 12.097 4.97954 11.8457C4.91246 11.671 4.80891 11.147 4.80891 11.1316C4.74183 10.7576 4.69168 10.2322 4.66693 9.61888C4.66237 9.50887 4.71773 9.4022 4.80956 9.34553Z" fill="#163C9F"/>
<path opacity="0.4" d="M5.11488 7.83052C4.91363 7.95519 4.66029 7.79585 4.67006 7.5565C4.69416 6.99514 4.73584 6.50045 4.78664 6.13243C4.79445 6.12443 4.898 5.47173 5.01719 5.25105C5.22494 4.84103 5.63264 4.59035 6.07094 4.59035H6.10741C6.39006 4.59769 6.99119 4.84837 6.99119 4.8637C7.29403 4.98971 7.68935 5.20305 8.11463 5.45973C8.3061 5.57574 8.31066 5.86042 8.11919 5.97842L5.11488 7.83052Z" fill="#163C9F"/>
</svg>
