<svg width="24" height="25" viewBox="0 0 24 25" fill="none" xmlns="http://www.w3.org/2000/svg">
<g id="Iconly/Two-tone/Call">
<g id="Call">
<path id="Call_2" fill-rule="evenodd" clip-rule="evenodd" d="M2.99033 5.4629C3.30665 4.93915 5.0495 3.03413 6.29322 3.09164C6.665 3.12245 6.99364 3.34735 7.26067 3.6082C7.87379 4.20692 9.62897 6.47138 9.72859 6.94789C9.97096 8.11657 8.57833 8.79026 9.00454 9.96819C10.0911 12.627 11.9634 14.4992 14.6233 15.5847C15.8003 16.0108 16.474 14.6183 17.6428 14.8617C18.1183 14.9613 20.3839 16.7164 20.9826 17.3295C21.2425 17.5955 21.4684 17.9251 21.4992 18.2969C21.5454 19.6063 19.5222 21.3737 19.1278 21.5996C18.1974 22.2651 16.9834 22.2538 15.5035 21.5657C11.3739 19.8476 4.77426 13.3726 3.02422 9.08706C2.35461 7.61542 2.30839 6.39333 2.99033 5.4629Z" stroke="white" stroke-width="1.5" stroke-linecap="round" stroke-linejoin="round"/>
<path id="Stroke 1" opacity="0.4" d="M4.3829 4.38466L5.8519 6.56366" stroke="white" stroke-width="1.5" stroke-linecap="round" stroke-linejoin="round"/>
<path id="Stroke 3" opacity="0.4" d="M17.8643 18.6572L20.0523 20.3672" stroke="white" stroke-width="1.5" stroke-linecap="round" stroke-linejoin="round"/>
</g>
</g>
</svg>
